# xmcd
#
# Track frame offsets: 
#        150
#        11450
#        27450
#        47554
#        62258
#        75941
#        89829
#        106296
#        128452
#        143802
#        160415
#        175524
#        191955
#        222665
#
# Disc length: 3109 seconds
#
# Revision: 4
# Processed by: cddbd v1.5.2PL0 Copyright (c) Steve Scherf et al.
# Submitted via: ExactAudioCopy v1.1
#
DISCID=b60c230e
DTITLE=Tinie Tempah - Disc-Overy
DYEAR=2010
DGENRE=Pop Rap
TTITLE0=Intro
TTITLE1=Simply Unstoppable
TTITLE2=Pass Out
TTITLE3=Illusion
TTITLE4=Just A Little (Feat. Range)
TTITLE5=Snap
TTITLE6=Written In The Stars (Feat. Eric Turner)
TTITLE7=Frisky (Feat Labrinth)
TTITLE8=Miami 2 Ibiza (Vs. Swedish House Mafia)
TTITLE9=Obsession
TTITLE10=Invincible (Feat. Kelly Rowland)
TTITLE11=Wonderman (Feat. Ellie Goulding)
TTITLE12=Let Go (Feat. Emeli Sande)
TTITLE13=No Artist - Data
EXTD=
EXTT0=
EXTT1=
EXTT2=
EXTT3=
EXTT4=
EXTT5=
EXTT6=
EXTT7=
EXTT8=
EXTT9=
EXTT10=
EXTT11=
EXTT12=
EXTT13=
PLAYORDER=
